<svg width="266" height="57" viewBox="0 0 266 57" fill="none" xmlns="http://www.w3.org/2000/svg">
<path fill-rule="evenodd" clip-rule="evenodd" d="M42.1958 28.4406C37.0099 25.4479 32.1836 22.6601 26.9826 19.6574C26.9826 21.7558 26.8877 23.5194 27.0476 25.2631C27.0875 25.7177 27.8469 26.2023 28.3715 26.5021C32.5083 28.8853 36.6451 31.2634 40.8269 33.5567C41.8811 34.1362 42.3757 34.8307 42.2008 35.9998C42.1909 36.0647 42.1859 36.1297 42.2008 36.1946C43.1451 40.0416 40.8619 41.8502 37.7643 43.0543C37.2747 43.2441 36.4952 43.1592 36.0306 42.8894C29.7005 39.2822 23.3854 35.645 17.1152 31.9329C16.5806 31.6182 16.086 30.7288 16.081 30.1043C16.0111 22.75 16.0061 15.3957 16.081 8.04138C16.086 7.3719 16.6556 6.53255 17.2102 6.07791C19.7132 4.0195 22.0764 3.9895 24.9692 5.90302C30.0153 9.24044 35.3661 12.1282 40.652 15.0959C41.8511 15.7704 42.2408 16.5398 42.2158 17.8438C42.1409 21.2412 42.1908 24.6386 42.1908 28.4356L42.1958 28.4406Z" fill="#0284C7"/>
<path fill-rule="evenodd" clip-rule="evenodd" d="M10.6551 28.1209C10.6551 29.9395 10.7401 31.3384 10.6301 32.7174C10.5302 34.0064 11.0698 34.6758 12.1689 35.2853C18.2043 38.6278 24.1996 42.0501 30.2 45.4525C30.6247 45.6923 31.0144 46.0021 31.6838 46.4617C28.2215 48.5451 24.999 50.5186 21.7216 52.4021C21.3519 52.6169 20.5824 52.4471 20.1478 52.1923C13.7727 48.5251 7.41262 44.838 1.0975 41.0759C0.572905 40.7661 0.138241 39.8868 0.0982722 39.2473C-0.181512 34.2162 -0.151541 34.2062 4.24506 31.6881C6.23852 30.549 8.25696 29.4499 10.6501 28.1209H10.6551Z" fill="#DC2626"/>
<path fill-rule="evenodd" clip-rule="evenodd" d="M10.6199 9.86499C10.6199 14.1367 10.6349 17.9188 10.5949 21.7008C10.5949 22.0206 10.3251 22.4753 10.0503 22.6301C6.8778 24.4338 3.68028 26.1874 0.0930491 28.1808C0.0930491 23.9441 0.0830508 20.1221 0.118024 16.3C0.118024 16.0452 0.38783 15.6905 0.632641 15.5506C3.80019 13.722 6.98273 11.9284 10.6199 9.86499Z" fill="white"/>
<path d="M63.6578 46V12.1797H86.064V18.0156H70.7359V26.125H85.1968V31.6562H70.7359V40.1641H86.064V46H63.6578ZM90.5874 46V20.875H97.4312V25H97.5718C98.2281 23.5625 99.1968 22.4297 100.478 21.6016C101.759 20.7734 103.345 20.3594 105.236 20.3594C108.002 20.3594 110.134 21.1953 111.634 22.8672C113.15 24.5234 113.908 26.8281 113.908 29.7812V46H107.064V31.1875C107.064 29.5469 106.673 28.2812 105.892 27.3906C105.127 26.4844 103.978 26.0312 102.447 26.0312C101.431 26.0312 100.548 26.2656 99.7984 26.7344C99.0484 27.1875 98.4624 27.8281 98.0406 28.6562C97.6343 29.4844 97.4312 30.4531 97.4312 31.5625V46H90.5874ZM127.548 46.5156C125.439 46.5156 123.619 45.9922 122.087 44.9453C120.556 43.8984 119.377 42.3984 118.548 40.4453C117.736 38.4922 117.33 36.1562 117.33 33.4375V33.4141C117.33 30.6797 117.744 28.3438 118.572 26.4062C119.4 24.4531 120.572 22.9609 122.087 21.9297C123.619 20.8828 125.439 20.3594 127.548 20.3594C128.736 20.3594 129.83 20.5547 130.83 20.9453C131.83 21.3359 132.705 21.8984 133.455 22.6328C134.22 23.3516 134.83 24.2188 135.283 25.2344H135.423V12.1797H142.267V46H135.423V41.7109H135.283C134.845 42.7109 134.252 43.5703 133.502 44.2891C132.752 44.9922 131.877 45.5391 130.877 45.9297C129.877 46.3203 128.767 46.5156 127.548 46.5156ZM129.845 40.8438C130.955 40.8438 131.931 40.5469 132.775 39.9531C133.619 39.3438 134.275 38.4844 134.744 37.375C135.212 36.2656 135.447 34.9531 135.447 33.4375V33.4141C135.447 31.8984 135.205 30.5938 134.72 29.5C134.252 28.3906 133.595 27.5391 132.752 26.9453C131.923 26.3359 130.955 26.0312 129.845 26.0312C128.705 26.0312 127.72 26.3281 126.892 26.9219C126.064 27.5156 125.423 28.3672 124.97 29.4766C124.517 30.5703 124.291 31.8828 124.291 33.4141V33.4375C124.291 34.9531 124.509 36.2656 124.947 37.375C125.4 38.4844 126.041 39.3438 126.869 39.9531C127.712 40.5469 128.705 40.8438 129.845 40.8438ZM158.275 46.5156C155.712 46.5156 153.509 45.9922 151.666 44.9453C149.822 43.8828 148.4 42.375 147.4 40.4219C146.416 38.4688 145.923 36.1562 145.923 33.4844V33.4609C145.923 30.7891 146.416 28.4766 147.4 26.5234C148.4 24.5547 149.798 23.0391 151.595 21.9766C153.408 20.8984 155.541 20.3594 157.994 20.3594C160.447 20.3594 162.564 20.8828 164.345 21.9297C166.142 22.9609 167.525 24.4219 168.494 26.3125C169.478 28.2031 169.97 30.4141 169.97 32.9453V35.0547H149.275V30.7422H166.736L163.478 34.7734V32.1484C163.478 30.6797 163.252 29.4531 162.798 28.4688C162.345 27.4688 161.712 26.7188 160.9 26.2188C160.103 25.7188 159.173 25.4688 158.111 25.4688C157.048 25.4688 156.103 25.7266 155.275 26.2422C154.462 26.7578 153.822 27.5156 153.353 28.5156C152.9 29.5 152.673 30.7109 152.673 32.1484V34.7969C152.673 36.1875 152.9 37.375 153.353 38.3594C153.822 39.3438 154.486 40.1016 155.345 40.6328C156.205 41.1484 157.228 41.4062 158.416 41.4062C159.353 41.4062 160.166 41.2578 160.853 40.9609C161.541 40.6641 162.103 40.2891 162.541 39.8359C162.978 39.3828 163.275 38.9219 163.431 38.4531L163.478 38.3125H169.759L169.689 38.5703C169.502 39.4922 169.134 40.4219 168.587 41.3594C168.041 42.2969 167.298 43.1562 166.361 43.9375C165.439 44.7188 164.306 45.3438 162.962 45.8125C161.634 46.2812 160.072 46.5156 158.275 46.5156ZM179.066 46.3984C177.394 46.3984 175.925 46.0781 174.66 45.4375C173.394 44.7812 172.402 43.8828 171.683 42.7422C170.98 41.5859 170.628 40.2734 170.628 38.8047V38.7578C170.628 37.2266 171.011 35.9219 171.777 34.8438C172.542 33.75 173.652 32.8906 175.105 32.2656C176.558 31.6406 178.324 31.2578 180.402 31.1172L190.199 30.5078V34.7734L181.433 35.3359C180.121 35.4141 179.121 35.7266 178.433 36.2734C177.746 36.8047 177.402 37.5156 177.402 38.4062V38.4531C177.402 39.375 177.753 40.1016 178.457 40.6328C179.16 41.1484 180.105 41.4062 181.292 41.4062C182.308 41.4062 183.214 41.2109 184.011 40.8203C184.824 40.4141 185.457 39.8672 185.91 39.1797C186.378 38.4766 186.613 37.6875 186.613 36.8125V29.1953C186.613 28.0859 186.261 27.2109 185.558 26.5703C184.855 25.9141 183.832 25.5859 182.488 25.5859C181.207 25.5859 180.191 25.8516 179.441 26.3828C178.691 26.9141 178.23 27.5859 178.058 28.3984L178.011 28.6094H171.753L171.777 28.3281C171.902 26.7812 172.41 25.4062 173.3 24.2031C174.207 23 175.457 22.0625 177.05 21.3906C178.66 20.7031 180.566 20.3594 182.769 20.3594C184.941 20.3594 186.824 20.7109 188.417 21.4141C190.011 22.1016 191.246 23.0781 192.121 24.3438C193.011 25.6094 193.457 27.0859 193.457 28.7734V46H186.613V42.25H186.472C186.003 43.1094 185.394 43.8516 184.644 44.4766C183.91 45.0859 183.074 45.5625 182.136 45.9062C181.199 46.2344 180.175 46.3984 179.066 46.3984ZM204.378 46L195.683 20.875H202.996L208.246 39.9531H208.386L213.566 20.875H220.714L212.089 46H204.378ZM233.746 46.5156C231.199 46.5156 228.996 45.9922 227.136 44.9453C225.277 43.8984 223.839 42.3984 222.824 40.4453C221.808 38.4922 221.3 36.1562 221.3 33.4375V33.3906C221.3 30.6875 221.816 28.3672 222.847 26.4297C223.878 24.4766 225.324 22.9766 227.183 21.9297C229.042 20.8828 231.222 20.3594 233.722 20.3594C236.238 20.3594 238.425 20.8828 240.285 21.9297C242.16 22.9609 243.613 24.4531 244.644 26.4062C245.675 28.3438 246.191 30.6719 246.191 33.3906V33.4375C246.191 36.1719 245.675 38.5156 244.644 40.4688C243.628 42.4219 242.191 43.9219 240.332 44.9688C238.472 46 236.277 46.5156 233.746 46.5156ZM233.769 41.1484C234.878 41.1484 235.839 40.8516 236.652 40.2578C237.48 39.6484 238.113 38.7734 238.55 37.6328C239.003 36.4766 239.23 35.0781 239.23 33.4375V33.3906C239.23 31.7656 239.003 30.3828 238.55 29.2422C238.097 28.1016 237.457 27.2344 236.628 26.6406C235.8 26.0312 234.832 25.7266 233.722 25.7266C232.628 25.7266 231.667 26.0312 230.839 26.6406C230.027 27.2344 229.394 28.1016 228.941 29.2422C228.488 30.3828 228.261 31.7656 228.261 33.3906V33.4375C228.261 35.0781 228.48 36.4766 228.917 37.6328C229.371 38.7734 230.011 39.6484 230.839 40.2578C231.667 40.8516 232.644 41.1484 233.769 41.1484ZM249.73 46V20.875H256.574V25.2578H256.714C257.089 23.7109 257.769 22.5078 258.753 21.6484C259.738 20.7891 260.964 20.3594 262.433 20.3594C262.808 20.3594 263.167 20.3828 263.511 20.4297C263.855 20.4766 264.152 20.5391 264.402 20.6172V26.6406C264.121 26.5312 263.761 26.4453 263.324 26.3828C262.886 26.3047 262.417 26.2656 261.917 26.2656C260.792 26.2656 259.832 26.4844 259.035 26.9219C258.238 27.3594 257.628 28 257.207 28.8438C256.785 29.6875 256.574 30.7188 256.574 31.9375V46H249.73Z" fill="white"/>
</svg>
